<?xml version="1.0" encoding="utf-8"?>
<!-- Generator: Adobe Illustrator 27.1.1, SVG Export Plug-In . SVG Version: 6.00 Build 0)  -->
<svg version="1.1" id="레이어_1" xmlns="http://www.w3.org/2000/svg" xmlns:xlink="http://www.w3.org/1999/xlink" x="0px"
	 y="0px" viewBox="0 0 250.4 99.3" style="enable-background:new 0 0 250.4 99.3;" xml:space="preserve">
<style type="text/css">
	.st0{fill:#FFFFFF;}
</style>
<polygon class="st0" points="0,0.3 0,73.5 40.1,73.5 40.1,99.3 73.2,73.5 73.2,0.3 "/>
<g>
	<path class="st0" d="M89.4,45.3V30.1H95c4.7,0,7.5,2.9,7.5,7.6c0,4.8-2.9,7.6-7.5,7.6H89.4z M94.8,42.3c2.6,0,4-1.2,4-4.5
		c0-3.3-1.4-4.6-4.1-4.6H93v9.1H94.8z"/>
	<path class="st0" d="M105.2,45.3l5.2-15.2h4.8l5.2,15.2h-3.9l-1-3.3h-5.3l-1,3.3H105.2z M114.5,39.3l-1.7-5.5h-0.1l-1.7,5.5H114.5z
		"/>
	<path class="st0" d="M127.6,45.3H124V30.1h3.6V45.3z"/>
	<path class="st0" d="M137.9,32.8c-1.5,0-2.2,0.6-2.2,1.5c0,0.9,0.9,1.4,2.3,1.7l1.3,0.3c2.9,0.6,4.6,2.1,4.7,4.5
		c0,2.9-2.3,4.6-6,4.6c-3.8,0-6.3-1.7-6.3-5.2h3.5c0.1,1.5,1.2,2.2,2.8,2.2c1.5,0,2.4-0.7,2.4-1.6c0-0.9-0.8-1.3-2.5-1.7l-1.6-0.4
		c-2.6-0.6-4.2-1.9-4.2-4.2c0-2.8,2.5-4.7,5.9-4.7c3.5,0,5.8,1.9,5.8,4.7h-3.5C140.2,33.5,139.4,32.8,137.9,32.8z"/>
	<path class="st0" d="M155,45.5c-4.1,0-7.2-2.8-7.2-7.8c0-5,3.1-7.8,7.2-7.8c4.1,0,7.3,2.8,7.2,7.8C162.3,42.7,159.1,45.5,155,45.5z
		 M155,42.4c2.2,0,3.6-1.6,3.6-4.7c0-3-1.3-4.7-3.6-4.7c-2.2,0-3.6,1.6-3.6,4.7S152.8,42.4,155,42.4z"/>
	<path class="st0" d="M102.3,71.2h-3.1l-6.2-8.9H93v8.9h-3.6V56h3.1l6.1,8.9h0.1V56h3.6V71.2z"/>
	<path class="st0" d="M106.8,56h10.5v2.9h-7v3.2h6.4V65h-6.4v3.2h7v2.9h-10.6V56z"/>
	<path class="st0" d="M121,56h4l2.3,10.1h0.1l2.7-10.1h3.3l2.7,10.1h0.1l2.4-10.1h4L138,71.2h-3.5l-2.8-9.4h-0.1l-2.8,9.4h-3.5
		L121,56z"/>
	<path class="st0" d="M151.8,58.7c-1.5,0-2.2,0.6-2.2,1.5c0,0.9,0.9,1.4,2.3,1.7l1.3,0.3c2.9,0.6,4.6,2.1,4.7,4.5
		c0,2.9-2.3,4.6-6,4.6c-3.8,0-6.3-1.7-6.3-5.2h3.5c0.1,1.5,1.2,2.2,2.8,2.2c1.5,0,2.4-0.7,2.4-1.6c0-0.9-0.8-1.3-2.5-1.7l-1.6-0.4
		c-2.6-0.6-4.2-1.9-4.2-4.2c0-2.8,2.5-4.7,5.9-4.7c3.5,0,5.8,1.9,5.8,4.7h-3.5C154,59.4,153.2,58.7,151.8,58.7z"/>
	<path class="st0" d="M161.8,56h3.6v12.3h6.4v2.9h-10V56z"/>
	<path class="st0" d="M175.8,56h10.5v2.9h-7v3.2h6.4V65h-6.4v3.2h7v2.9h-10.6V56z"/>
	<path class="st0" d="M190.3,56h12.8v2.9h-4.6v12.3h-3.6V58.9h-4.6V56z"/>
	<path class="st0" d="M206.5,56h12.8v2.9h-4.6v12.3h-3.6V58.9h-4.6V56z"/>
	<path class="st0" d="M223.3,56h10.5v2.9h-7v3.2h6.4V65h-6.4v3.2h7v2.9h-10.6V56z"/>
	<path class="st0" d="M238.3,56h6.2c3.4,0,5.5,1.9,5.5,5.1c0,2.1-1,3.6-2.6,4.4l3.2,5.8h-3.9l-2.8-5.2h-2v5.2h-3.6V56z M243.8,63.1
		c1.7,0,2.6-0.7,2.6-2.1c0-1.4-0.9-2.1-2.6-2.1h-1.9v4.2H243.8z"/>
</g>
</svg>
