<?xml version="1.0" encoding="utf-8"?>
<!-- Generator: Adobe Illustrator 27.1.1, SVG Export Plug-In . SVG Version: 6.00 Build 0)  -->
<svg version="1.1" id="레이어_1" xmlns="http://www.w3.org/2000/svg" xmlns:xlink="http://www.w3.org/1999/xlink" x="0px"
	 y="0px" viewBox="0 0 1000 1000" style="enable-background:new 0 0 1000 1000;" xml:space="preserve">
<style type="text/css">
	.st0{opacity:0.65;}
	.st1{opacity:0.14;fill:url(#패스_371_00000141450678865821514610000006297780164912412557_);enable-background:new    ;}
	.st2{opacity:0.23;fill:url(#패스_372_00000005972267669184911080000017506430408154674603_);enable-background:new    ;}
</style>
<g id="그룹_311" class="st0">
	
		<linearGradient id="패스_371_00000016042951400278770230000011433768882684394918_" gradientUnits="userSpaceOnUse" x1="1.5107" y1="1000.1194" x2="1.4162" y2="1001.8723" gradientTransform="matrix(-558.755 0 0 -558.755 1354.7562 559475.375)">
		<stop  offset="0" style="stop-color:#FFFFFF"/>
		<stop  offset="1" style="stop-color:#FF0000"/>
	</linearGradient>
	
		<path id="패스_371" style="opacity:0.14;fill:url(#패스_371_00000016042951400278770230000011433768882684394918_);enable-background:new    ;" d="
		M22.5,642.6c0-269.9,218.8-488.7,488.7-488.7S1000,372.7,1000,642.6s-218.8,488.7-488.7,488.7C241.3,1131.3,22.5,912.5,22.5,642.6z
		 M511.3,417.5c-124.3,0-225.1,100.8-225.1,225.1c0,0,0,0,0,0c0,124.3,100.8,225.1,225.1,225.1c124.3,0,225.1-100.8,225.1-225.1
		C736.3,518.3,635.6,417.5,511.3,417.5L511.3,417.5z"/>
	
		<linearGradient id="패스_372_00000145047025558831879460000011414470774461732276_" gradientUnits="userSpaceOnUse" x1="1.9907" y1="1001.2656" x2="1.9907" y2="999.5162" gradientTransform="matrix(-259.575 0 0 -259.576 743.1573 259915.6562)">
		<stop  offset="0" style="stop-color:#FFFFFF"/>
		<stop  offset="1" style="stop-color:#FF0000"/>
	</linearGradient>
	
		<path id="패스_372" style="opacity:0.23;fill:url(#패스_372_00000145047025558831879460000011414470774461732276_);enable-background:new    ;" d="
		M-0.6,11.1h454.1L-0.6,465.2V11.1z"/>
</g>
</svg>
