<?xml version="1.0" encoding="utf-8"?>
<!-- Generator: Adobe Illustrator 27.1.1, SVG Export Plug-In . SVG Version: 6.00 Build 0)  -->
<svg version="1.1" id="레이어_1" xmlns="http://www.w3.org/2000/svg" xmlns:xlink="http://www.w3.org/1999/xlink" x="0px"
	 y="0px" viewBox="0 0 1000 1000" style="enable-background:new 0 0 1000 1000;" xml:space="preserve">
<style type="text/css">
	.st0{opacity:0.65;}
	.st1{opacity:0.14;fill:url(#패스_371_00000130614259448376112910000008015942010528724891_);enable-background:new    ;}
	.st2{opacity:0.23;fill:url(#패스_372_00000029044521862177643080000007047632711664216736_);enable-background:new    ;}
</style>
<g id="그룹_311" class="st0">
	
		<linearGradient id="패스_371_00000090984146991724421990000010235725695275269554_" gradientUnits="userSpaceOnUse" x1="1.5107" y1="1000.1194" x2="1.4162" y2="1001.8723" gradientTransform="matrix(558.755 0 0 -558.755 -355.3928 559475.375)">
		<stop  offset="0" style="stop-color:#FFFFFF"/>
		<stop  offset="1" style="stop-color:#FF0000"/>
	</linearGradient>
	
		<path id="패스_371" style="opacity:0.14;fill:url(#패스_371_00000090984146991724421990000010235725695275269554_);enable-background:new    ;" d="
		M488.1,1131.3c-269.9,0-488.7-218.8-488.7-488.7s218.8-488.7,488.7-488.7s488.7,218.8,488.7,488.7S758,1131.3,488.1,1131.3z
		 M488.1,417.5C363.8,417.5,263,518.3,263,642.6s100.8,225.1,225.1,225.1c124.3,0,225.1-100.8,225.1-225.1c0,0,0,0,0,0
		C713.2,518.3,612.4,417.5,488.1,417.5L488.1,417.5z"/>
	
		<linearGradient id="패스_372_00000019668657499334943170000015801273951704061332_" gradientUnits="userSpaceOnUse" x1="1.9907" y1="1001.2656" x2="1.9907" y2="999.5162" gradientTransform="matrix(259.575 0 0 -259.576 256.2062 259915.6562)">
		<stop  offset="0" style="stop-color:#FFFFFF"/>
		<stop  offset="1" style="stop-color:#FF0000"/>
	</linearGradient>
	
		<path id="패스_372" style="opacity:0.23;fill:url(#패스_372_00000019668657499334943170000015801273951704061332_);enable-background:new    ;" d="
		M1000,465.2L545.9,11.1H1000V465.2z"/>
</g>
</svg>
